<svg xmlns="http://www.w3.org/2000/svg" fill="none" viewBox="0 0 40 40"><path fill="#C58C5F" d="M3.375 17.278l.06.1.51.902c-.05-.64.29-1.26.853-1.48.634-.247 1.322.1 1.586.781l.036.105.32 1.041.034-.021c.532-.305 1.188-.15 1.567.377l.062.094 2.805 4.63 4.719 1.184 1.477-2.973c.335-.674 1.079-.94 1.7-.627l.092.052c.607.371.847 1.197.564 1.886l-.046.102-2.833 5.704h.03l-.35 3.768c-.07.752-.7 1.327-1.455 1.327h-4.317a1.462 1.462 0 0 1-1.456-1.597l.163-1.768-4.411-5.064-3.883-6.867c-.387-.685-.201-1.588.416-2.018.586-.409 1.35-.243 1.757.362zm33.25 0c.407-.605 1.171-.77 1.757-.362.617.43.803 1.333.416 2.018L34.915 25.8l-4.412 5.064.164 1.768.004.068.002.067c0 .807-.654 1.462-1.462 1.462h-4.317a1.462 1.462 0 0 1-1.455-1.327l-.35-3.768h.029l-2.832-5.704-.047-.102c-.282-.69-.042-1.515.565-1.886l.092-.052c.621-.313 1.365-.047 1.7.627l1.476 2.973 4.72-1.184 2.805-4.63.062-.094c.413-.576 1.157-.707 1.71-.283l-.111-.073.322-1.041.036-.105c.264-.68.953-1.028 1.586-.781.564.22.903.84.853 1.48l.51-.903.06-.099z"/><path fill="#D9360B" d="M20 7.862c6.84-4.708 13.154-3.743 13.154 3.905S20 28.385 20 28.385 6.846 19.415 6.846 11.767c0-7.648 6.314-8.613 13.154-3.905z"/><path fill="#000" d="M20 14.537v13.848s13.154-8.97 13.154-16.618c0-7.648-6.314-8.613-13.154-3.905v6.675z" opacity=".15"/></svg>