<svg xmlns="http://www.w3.org/2000/svg" fill="none" viewBox="0 0 40 40"><path fill="#38AF88" d="M7.557 6A4.557 4.557 0 0 0 3 10.557v12.911a4.557 4.557 0 0 0 4.557 4.557h8.355v6.193a.76.76 0 0 0 1.285.548l7.021-6.74h8.402a4.557 4.557 0 0 0 4.557-4.558V10.557A4.557 4.557 0 0 0 32.62 6H7.557z"/><path fill="#25694F" d="M7.557 14.354c0-.838.68-1.519 1.52-1.519h22.025a1.519 1.519 0 0 1 0 3.038H9.076c-.839 0-1.519-.68-1.519-1.519zm0 5.316c0-.838.68-1.518 1.52-1.518h15.949a1.519 1.519 0 0 1 0 3.038H9.076a1.52 1.52 0 0 1-1.519-1.52z"/></svg>