<svg xmlns="http://www.w3.org/2000/svg" fill="none" viewBox="0 0 40 40"><g clip-path="url(#clip0)" fill-rule="evenodd" clip-rule="evenodd"><path fill="#E9C196" d="M24.578 22.783l-3.78 4.139a9.764 9.764 0 0 0-.275-.294l4.699-5.775c.638-.774.483-1.946-.345-2.605-.827-.66-2.027-.566-2.665.208l-4.704 5.78-.204-.123 4.289-6.79c.54-.843.252-1.997-.643-2.565-.895-.567-2.07-.341-2.61.502l-4.547 7.199c-.18-.06-.355-.114-.53-.164l3.683-6.564c.496-.87.149-2.013-.771-2.538-.92-.525-2.08-.242-2.576.628l-5.32 9.484-.483.869c.296-1.25.782-2.595 1.58-3.913.524-.866.206-2.016-.711-2.568-.922-.563-2.086-.299-2.61.567-3.478 5.744-2.949 8.336-2.145 12.438.805 4.102 5.77 6.947 10.974 5.276 3.47-1.115 7.662-4.663 12.574-10.645.682-.738.593-1.913-.199-2.614-.792-.7-1.998-.67-2.68.068z"/><path fill="#73422F" d="M26.274 24.326l-.236-5.601c-.129.02-.263.034-.399.049l-.112 7.444c-.009 1.003-.881 1.802-1.939 1.774-1.057-.027-1.916-.87-1.908-1.873l.113-7.451c-.079-.011-.157-.025-.236-.037l-1.079 7.958c-.128.993-1.091 1.692-2.142 1.552-1.05-.14-1.804-1.069-1.676-2.062l1.143-8.438a14.22 14.22 0 0 1-.51-.214l-1.399 7.395c-.18.986-1.18 1.637-2.222 1.448-1.042-.189-1.748-1.15-1.569-2.136l2.021-10.684.188-.977a13.536 13.536 0 0 0-1.305 4.013c-.155 1-1.137 1.677-2.195 1.51-1.068-.161-1.79-1.112-1.635-2.112 1.028-6.635 3.1-8.281 6.352-10.907 3.253-2.625 8.885-1.613 11.798 3.013 1.942 3.084 2.872 8.496 2.79 16.236.048 1.004-.776 1.847-1.833 1.875-1.057.027-1.96-.772-2.01-1.775z"/><path fill="#C58C5F" d="M15.422 22.782l3.78 4.14c.087-.098.18-.196.275-.294l-4.699-5.775c-.639-.774-.483-1.946.345-2.605.827-.66 2.027-.566 2.665.208l4.704 5.78.204-.123-4.289-6.79c-.54-.843-.252-1.997.643-2.565.895-.567 2.07-.341 2.61.502l4.547 7.199c.18-.06.355-.114.53-.164l-3.683-6.564c-.496-.87-.149-2.013.771-2.538.92-.525 2.08-.242 2.576.628l5.32 9.484.483.869a13.54 13.54 0 0 0-1.58-3.913c-.524-.866-.206-2.016.711-2.569.922-.562 2.086-.298 2.61.568 3.478 5.744 2.949 8.336 2.145 12.438-.805 4.102-5.77 6.947-10.974 5.276-3.47-1.115-7.662-4.663-12.574-10.645-.682-.738-.593-1.913.199-2.614.792-.7 1.998-.67 2.68.067z"/></g><defs><clipPath id="clip0"><path fill="#fff" d="M0 0h40v40H0z"/></clipPath></defs></svg>